<?xml version="1.0" encoding="UTF-8" standalone="no"?>
<svg
   viewBox="0 0 6.4017072 7.3162359"
   version="1.1"
   id="svg1"
   sodipodi:docname="add.svg"
   width="6.4017072"
   height="7.316236"
   inkscape:version="1.3 (0e150ed6c4, 2023-07-21)"
   xmlns:inkscape="http://www.inkscape.org/namespaces/inkscape"
   xmlns:sodipodi="http://sodipodi.sourceforge.net/DTD/sodipodi-0.dtd"
   xmlns="http://www.w3.org/2000/svg"
   xmlns:svg="http://www.w3.org/2000/svg">
  <defs
     id="defs1" />
  <sodipodi:namedview
     id="namedview1"
     pagecolor="#ffffff"
     bordercolor="#000000"
     borderopacity="0.25"
     inkscape:showpageshadow="2"
     inkscape:pageopacity="0.0"
     inkscape:pagecheckerboard="0"
     inkscape:deskcolor="#d1d1d1"
     inkscape:zoom="8.9824657"
     inkscape:cx="6.5683524"
     inkscape:cy="-22.989233"
     inkscape:window-width="1920"
     inkscape:window-height="1009"
     inkscape:window-x="1072"
     inkscape:window-y="468"
     inkscape:window-maximized="1"
     inkscape:current-layer="svg1" />
  <!--! Font Awesome Pro 6.4.2 by @fontawesome - https://fontawesome.com License - https://fontawesome.com/license (Commercial License) Copyright 2023 Fonticons, Inc. -->
  <path
     d="M 1.371794,0.457264 V 0.914529 H 0.685898 C 0.307225,0.914529 0,1.221754 0,1.600427 V 2.286323 H 6.401707 V 1.600427 c 0,-0.378673 -0.307224,-0.685898 -0.685898,-0.685898 H 5.029913 V 0.457264 C 5.029913,0.204341 4.825573,0 4.572648,0 4.319723,0 4.115382,0.204341 4.115382,0.457264 V 0.914529 H 2.286325 V 0.457264 C 2.286325,0.204341 2.081984,0 1.82906,0 1.576135,0 1.371794,0.204341 1.371794,0.457264 Z M 6.401707,2.743589 H 0 v 3.886749 c 0,0.378674 0.307225,0.685898 0.685898,0.685898 h 5.029911 c 0.378674,0 0.685898,-0.307224 0.685898,-0.685898 z M 3.200854,3.543802 c 0.19005,0 0.342948,0.152897 0.342948,0.342948 v 0.800213 h 0.800213 c 0.190051,0 0.34295,0.152898 0.34295,0.342948 0,0.190053 -0.152899,0.34295 -0.34295,0.34295 H 3.543802 v 0.800214 c 0,0.19005 -0.152898,0.342948 -0.342948,0.342948 -0.190051,0 -0.342949,-0.152898 -0.342949,-0.342948 V 5.372861 H 2.057692 c -0.19005,0 -0.34295,-0.152897 -0.34295,-0.34295 0,-0.19005 0.1529,-0.342948 0.34295,-0.342948 H 2.857905 V 3.88675 c 0,-0.190051 0.152898,-0.342948 0.342949,-0.342948 z"
     id="path1"
     style="stroke-width:0.0142895" />
</svg>
